<svg width="31" height="31" viewBox="0 0 31 31" fill="none" xmlns="http://www.w3.org/2000/svg">
<g clip-path="url(#clip0_24634_1017)">
<path d="M22.2016 0.5L19.9282 5.71762H14.7165L16.0818 2.58444C16.3517 1.96482 16.7956 1.43765 17.3593 1.06744C17.9229 0.697234 18.5818 0.500042 19.2553 0.5L22.2016 0.5Z" fill="#1C325F"/>
<path d="M30.4692 5.37239L28.3855 10.1552C28.1156 10.7748 27.6716 11.302 27.108 11.6722C26.5443 12.0424 25.8854 12.2396 25.2119 12.2396H20.9822L23.8237 5.71762H21.2256L23.4998 0.5H27.2956C29.7936 0.5 31.4703 3.07446 30.4692 5.37239Z" fill="#1C325F"/>
<path d="M14.975 20.0664L10.8024 29.6442C10.6917 29.8991 10.5093 30.1159 10.2777 30.2682C10.046 30.4205 9.77509 30.5017 9.49819 30.5016H4.7493C4.66072 30.5016 4.57352 30.4795 4.4956 30.4372C4.41767 30.3949 4.35147 30.3337 4.30296 30.2593C4.25444 30.1849 4.22515 30.0995 4.21773 30.0109C4.2103 29.9222 4.22498 29.8331 4.26043 29.7516L8.48017 20.0664H14.975Z" fill="#1C325F"/>
<path d="M18.2248 24.5318L20.7393 18.7611H9.04785L11.8893 12.2391H9.28688L6.82172 17.9037C6.71118 18.1582 6.52915 18.3749 6.29789 18.5272C6.06664 18.6795 5.79619 18.7608 5.51964 18.7611H0.770755C0.68215 18.7611 0.594951 18.7389 0.517033 18.6965C0.439115 18.6542 0.372931 18.593 0.324458 18.5185C0.275985 18.444 0.24675 18.3586 0.239392 18.2699C0.232034 18.1813 0.246785 18.0922 0.282313 18.0107L4.16257 9.10505C4.43276 8.48526 4.87709 7.95804 5.44115 7.58797C6.00521 7.2179 6.66451 7.02103 7.33831 7.02149H20.6583L17.8199 13.5435H24.2112C26.7093 13.5435 28.3859 16.1175 27.3848 18.4159L24.7659 24.4262C24.6552 24.6808 24.4729 24.8975 24.2414 25.0497C24.0099 25.2019 23.7392 25.283 23.4625 25.2832H18.7132C18.6244 25.2833 18.5371 25.2612 18.459 25.2188C18.3809 25.1764 18.3146 25.1151 18.2661 25.0405C18.2176 24.9659 18.1884 24.8802 18.1811 24.7914C18.1739 24.7026 18.1889 24.6133 18.2248 24.5318Z" fill="#1C325F"/>
</g>
<defs>
<clipPath id="clip0_24634_1017">
<rect width="30.5263" height="30" fill="white" transform="translate(0.236847 0.5)"/>
</clipPath>
</defs>
</svg>
