<svg width="25" height="24" viewBox="0 0 25 24" fill="none" xmlns="http://www.w3.org/2000/svg">
<path d="M5.75 17.3125C5.75 17.6289 5.99609 17.875 6.3125 17.875H20.375C20.9727 17.875 21.5 18.4023 21.5 19C21.5 19.6328 20.9727 20.125 20.375 20.125H6.3125C4.73047 20.125 3.5 18.8945 3.5 17.3125V5.5C3.5 4.90234 3.99219 4.375 4.625 4.375C5.22266 4.375 5.75 4.90234 5.75 5.5V17.3125ZM15.5234 13.0586C15.1016 13.5156 14.3633 13.5156 13.9414 13.0586L11.9375 11.0547L8.77344 14.1836C8.35156 14.6406 7.61328 14.6406 7.19141 14.1836C6.73438 13.7617 6.73438 13.0234 7.19141 12.6016L11.1289 8.66406C11.5508 8.20703 12.2891 8.20703 12.7109 8.66406L14.75 10.668L18.4414 6.97656C18.8633 6.51953 19.6016 6.51953 20.0234 6.97656C20.4805 7.39844 20.4805 8.13672 20.0234 8.55859L15.5234 13.0586Z" fill="#8E9BC3"/>
</svg>
