<svg width="16" height="17" viewBox="0 0 16 17" fill="none" xmlns="http://www.w3.org/2000/svg">
<path d="M6.5 3.75V4.5H9.5V3.75C9.5 3.35156 9.82812 3 10.25 3C10.6484 3 11 3.35156 11 3.75V4.5H12.125C12.7344 4.5 13.25 5.01562 13.25 5.625V6.75H2.75V5.625C2.75 5.01562 3.24219 4.5 3.875 4.5H5V3.75C5 3.35156 5.32812 3 5.75 3C6.14844 3 6.5 3.35156 6.5 3.75ZM2.75 7.5H13.25V13.875C13.25 14.5078 12.7344 15 12.125 15H3.875C3.24219 15 2.75 14.5078 2.75 13.875V7.5ZM4.25 10.125C4.25 10.3359 4.41406 10.5 4.625 10.5H5.375C5.5625 10.5 5.75 10.3359 5.75 10.125V9.375C5.75 9.1875 5.5625 9 5.375 9H4.625C4.41406 9 4.25 9.1875 4.25 9.375V10.125ZM7.25 10.125C7.25 10.3359 7.41406 10.5 7.625 10.5H8.375C8.5625 10.5 8.75 10.3359 8.75 10.125V9.375C8.75 9.1875 8.5625 9 8.375 9H7.625C7.41406 9 7.25 9.1875 7.25 9.375V10.125ZM10.625 9C10.4141 9 10.25 9.1875 10.25 9.375V10.125C10.25 10.3359 10.4141 10.5 10.625 10.5H11.375C11.5625 10.5 11.75 10.3359 11.75 10.125V9.375C11.75 9.1875 11.5625 9 11.375 9H10.625ZM4.25 13.125C4.25 13.3359 4.41406 13.5 4.625 13.5H5.375C5.5625 13.5 5.75 13.3359 5.75 13.125V12.375C5.75 12.1875 5.5625 12 5.375 12H4.625C4.41406 12 4.25 12.1875 4.25 12.375V13.125ZM7.625 12C7.41406 12 7.25 12.1875 7.25 12.375V13.125C7.25 13.3359 7.41406 13.5 7.625 13.5H8.375C8.5625 13.5 8.75 13.3359 8.75 13.125V12.375C8.75 12.1875 8.5625 12 8.375 12H7.625ZM10.25 13.125C10.25 13.3359 10.4141 13.5 10.625 13.5H11.375C11.5625 13.5 11.75 13.3359 11.75 13.125V12.375C11.75 12.1875 11.5625 12 11.375 12H10.625C10.4141 12 10.25 12.1875 10.25 12.375V13.125Z" fill="#4B5B8D"/>
</svg>
