<svg width="16" height="17" viewBox="0 0 16 17" fill="none" xmlns="http://www.w3.org/2000/svg">
<path d="M9.5 9C9.07812 9 8.75 9.35156 8.75 9.75C8.75 10.1719 9.07812 10.5 9.5 10.5H11.75C12.9922 10.5 14 11.5078 14 12.75C14 13.9922 12.9922 15 11.75 15H5.25781C5.46875 14.7891 5.70312 14.4844 5.96094 14.1562C6.10156 13.9453 6.26562 13.7344 6.40625 13.5H11.75C12.1484 13.5 12.5 13.1719 12.5 12.75C12.5 12.3516 12.1484 12 11.75 12H9.5C8.23438 12 7.22656 10.9922 7.22656 9.75C7.22656 8.50781 8.23438 7.5 9.5 7.5H10.4844C9.96875 6.79688 9.5 5.95312 9.5 5.25C9.5 4.00781 10.4844 3 11.75 3C12.9922 3 14 4.00781 14 5.25C14 6.75 11.75 9 11.75 9H9.5ZM11.75 6C12.1484 6 12.5 5.67188 12.5 5.25C12.5 4.85156 12.1484 4.5 11.75 4.5C11.3281 4.5 11 4.85156 11 5.25C11 5.67188 11.3281 6 11.75 6ZM4.76562 14.4375L4.74219 14.4609C4.64844 14.5781 4.55469 14.6719 4.48438 14.7656C4.46094 14.7656 4.46094 14.7656 4.46094 14.7891C4.32031 14.9297 4.25 15 4.25 15C4.25 15 2 12.75 2 11.25C2 10.0078 2.98438 9 4.25 9C5.49219 9 6.5 10.0078 6.5 11.25C6.5 11.9531 6.00781 12.7969 5.49219 13.5C5.23438 13.875 4.97656 14.1797 4.76562 14.4375ZM4.22656 12C4.64844 12 4.97656 11.6719 4.97656 11.25C4.97656 10.8516 4.64844 10.5 4.22656 10.5C3.82812 10.5 3.47656 10.8516 3.47656 11.25C3.47656 11.6719 3.82812 12 4.22656 12Z" fill="#4B5B8D"/>
</svg>
