<svg width="22" height="22" viewBox="0 0 22 22" fill="none" xmlns="http://www.w3.org/2000/svg">
<path d="M21.5 5C21.5 7.48438 19.4844 9.5 17 9.5C15.7812 9.5 14.6562 9.03125 13.8594 8.28125L9.45312 10.4844C9.45312 10.625 9.45312 10.8125 9.45312 11C9.45312 11.1875 9.45312 11.375 9.45312 11.5625L13.8594 13.7656C14.6562 13.0156 15.7812 12.5 17 12.5C19.4844 12.5 21.5 14.5156 21.5 17C21.5 19.4844 19.4844 21.5 17 21.5C14.4688 21.5 12.5 19.4844 12.5 17C12.5 16.8125 12.5 16.625 12.5 16.4844L8.09375 14.2812C7.29688 15.0312 6.17188 15.5 5 15.5C2.46875 15.5 0.5 13.4844 0.5 11C0.5 8.51562 2.46875 6.5 5 6.5C6.17188 6.5 7.29688 7.01562 8.09375 7.76562L12.5 5.5625C12.5 5.375 12.5 5.1875 12.5 5C12.5 2.51562 14.4688 0.5 17 0.5C19.4844 0.5 21.5 2.51562 21.5 5ZM4.95312 12.5C5.79688 12.5 6.45312 11.8438 6.45312 11C6.45312 10.2031 5.79688 9.5 4.95312 9.5C4.15625 9.5 3.45312 10.2031 3.45312 11C3.45312 11.8438 4.15625 12.5 4.95312 12.5ZM17 3.5C16.1562 3.5 15.5 4.20312 15.5 5C15.5 5.84375 16.1562 6.5 17 6.5C17.7969 6.5 18.5 5.84375 18.5 5C18.5 4.20312 17.7969 3.5 17 3.5ZM17 18.5C17.7969 18.5 18.5 17.8438 18.5 17C18.5 16.2031 17.7969 15.5 17 15.5C16.1562 15.5 15.5 16.2031 15.5 17C15.5 17.8438 16.1562 18.5 17 18.5Z" fill="#F77F00"/>
</svg>
