<svg width="32" height="33" viewBox="0 0 32 33" fill="none" xmlns="http://www.w3.org/2000/svg">
<circle cx="16" cy="16.5" r="16" fill="#FFB715"/>
<path d="M16 17.1666C18.3042 17.1666 20.2 15.2999 20.2 12.9666C20.2 10.6624 18.3042 8.7666 16 8.7666C13.6667 8.7666 11.8 10.6624 11.8 12.9666C11.8 15.2999 13.6667 17.1666 16 17.1666ZM19.7333 18.0999H18.1C17.4583 18.4208 16.7583 18.5666 16 18.5666C15.2417 18.5666 14.5125 18.4208 13.8708 18.0999H12.2667C10.1958 18.0999 8.53333 19.7916 8.53333 21.8333V22.2999C8.53333 23.0874 9.14583 23.6999 9.93333 23.6999H22.0667C22.825 23.6999 23.4667 23.0874 23.4667 22.2999V21.8333C23.4667 19.7916 21.775 18.0999 19.7333 18.0999Z" fill="#1C325F"/>
</svg>
