<svg width="55" height="55" viewBox="0 0 55 55" fill="none" xmlns="http://www.w3.org/2000/svg">
<rect x="0.5" y="0.5" width="54" height="54" rx="27" fill="#FFB715"/>
<g clip-path="url(#clip0_24634_1016)">
<path d="M34.2016 12.5L31.9282 17.7176H26.7165L28.0818 14.5844C28.3517 13.9648 28.7956 13.4377 29.3593 13.0674C29.9229 12.6972 30.5818 12.5 31.2553 12.5H34.2016Z" fill="#1C325F"/>
<path d="M42.4692 17.3724L40.3855 22.1552C40.1156 22.7748 39.6716 23.302 39.108 23.6722C38.5443 24.0424 37.8854 24.2396 37.2119 24.2396H32.9822L35.8237 17.7176H33.2256L35.4998 12.5H39.2956C41.7936 12.5 43.4703 15.0745 42.4692 17.3724Z" fill="#1C325F"/>
<path d="M26.975 32.0664L22.8024 41.6442C22.6917 41.8991 22.5093 42.1159 22.2777 42.2682C22.046 42.4205 21.7751 42.5017 21.4982 42.5016H16.7493C16.6607 42.5016 16.5735 42.4795 16.4956 42.4372C16.4177 42.3949 16.3515 42.3337 16.303 42.2593C16.2544 42.1849 16.2252 42.0995 16.2177 42.0109C16.2103 41.9222 16.225 41.8331 16.2604 41.7516L20.4802 32.0664H26.975Z" fill="#1C325F"/>
<path d="M30.2248 36.5318L32.7393 30.7611H21.0479L23.8893 24.2391H21.2869L18.8217 29.9037C18.7112 30.1582 18.5292 30.3749 18.2979 30.5272C18.0666 30.6795 17.7962 30.7608 17.5196 30.7611H12.7708C12.6821 30.7611 12.595 30.7389 12.517 30.6965C12.4391 30.6542 12.3729 30.593 12.3245 30.5185C12.276 30.444 12.2467 30.3586 12.2394 30.2699C12.232 30.1813 12.2468 30.0922 12.2823 30.0107L16.1626 21.1051C16.4328 20.4853 16.8771 19.958 17.4412 19.588C18.0052 19.2179 18.6645 19.021 19.3383 19.0215H32.6583L29.8199 25.5435H36.2112C38.7093 25.5435 40.3859 28.1175 39.3848 30.4159L36.7659 36.4262C36.6552 36.6808 36.4729 36.8975 36.2414 37.0497C36.0099 37.2019 35.7392 37.283 35.4625 37.2832H30.7132C30.6244 37.2833 30.5371 37.2612 30.459 37.2188C30.3809 37.1764 30.3146 37.1151 30.2661 37.0405C30.2176 36.9659 30.1884 36.8802 30.1811 36.7914C30.1739 36.7026 30.1889 36.6133 30.2248 36.5318Z" fill="#1C325F"/>
</g>
<defs>
<clipPath id="clip0_24634_1016">
<rect width="30.5263" height="30" fill="white" transform="translate(12.2368 12.5)"/>
</clipPath>
</defs>
</svg>
